
<svg viewBox="0 0 100 100" xmlns="http://www.w3.org/2000/svg">
    <rect width="100" height="100" fill="none" fill-rule="evenodd"/>
    <path fill="#00D563" fill-rule="evenodd" d="M100 65.803V81.837C100 91.834 92.155 99.926 82.426 99.999H49.235L29.492 65.803H100ZM60.5 0L23.75 63.653 44.735 99.999 17.575 99.998 17.176 99.992C7.631 99.704 0 91.698 0 81.837V75.344L43.5-.001H60.5ZM41 .001L0 71.014V18.163C0 8.12 7.917 0 17.708 0L41 .001ZM42.5 38.971L55.74 61.904H38.552C36.633 61.904 34.86 60.897 33.901 59.235 32.942 57.573 32.942 55.526 33.901 53.865 34.248 53.263 34.603 52.648 34.962 52.027L36.045 50.152C39.3 44.514 42.5 38.971 42.5 38.971ZM82.292 0C92.083 0 100 8.12 100 18.163V61.904H60.242L44.75 35.074 65 0H82.292Z"/>
</svg>