
<svg viewBox="0 0 100 100" xmlns="http://www.w3.org/2000/svg">
    <rect width="100" height="100" fill="none" fill-rule="evenodd"/>
    <path fill="#00D563" fill-rule="evenodd" d="M50 33.333V83.333C50 92.476 42.476 100 33.333 100 24.19 100 16.667 92.476 16.667 83.333 16.667 74.19 24.19 66.667 33.333 66.667 24.19 66.667 16.667 59.143 16.667 50 16.667 40.857 24.19 33.333 33.333 33.333 24.19 33.333 16.667 25.81 16.667 16.667 16.667 7.529 24.182.007 33.32 0H66.667C75.81 0 83.333 7.524 83.333 16.667 83.333 25.81 75.81 33.333 66.667 33.333H50ZM66.667 33.333C75.81 33.333 83.333 40.857 83.333 50 83.333 59.143 75.81 66.667 66.667 66.667 57.524 66.667 50 59.143 50 50 50 40.857 57.524 33.333 66.667 33.333Z"/>
</svg>