
<svg viewBox="0 0 100 100" xmlns="http://www.w3.org/2000/svg">
    <rect width="100" height="100" fill="none" fill-rule="evenodd"/>
    <path fill="#00D563" d="M96.123 45.737L54.27 3.887C53.112 2.729 51.54 2.078 49.903 2.078 48.266 2.078 46.694 2.729 45.536 3.887L36.848 12.579 47.871 23.602C50.51 22.705 53.442 23.388 55.413 25.358 57.396 27.343 58.074 30.299 57.154 32.95L67.781 43.574C70.433 42.653 73.39 43.332 75.374 45.318 76.751 46.695 77.525 48.564 77.525 50.511 77.525 52.459 76.751 54.328 75.374 55.705 72.521 58.554 67.83 58.554 64.978 55.705 62.888 53.611 62.257 50.45 63.384 47.714L53.474 37.807V63.884C55.975 65.119 57.565 67.678 57.565 70.468 57.565 72.415 56.791 74.284 55.414 75.661 54.037 77.038 52.168 77.813 50.221 77.813 48.273 77.813 46.404 77.038 45.027 75.661 43.65 74.284 42.875 72.415 42.875 70.467 42.875 68.52 43.65 66.65 45.027 65.273 45.714 64.584 46.531 64.039 47.431 63.668V37.351C44.681 36.219 42.878 33.525 42.878 30.552 42.878 29.579 43.071 28.616 43.446 27.718L32.578 16.848 3.877 45.541C1.485 47.938 1.485 51.877 3.877 54.274L45.732 96.129C48.129 98.52 52.067 98.52 54.464 96.129L96.123 54.47C98.515 52.073 98.515 48.134 96.123 45.737"/>
</svg>