
<svg viewBox="0 0 100 100" xmlns="http://www.w3.org/2000/svg">
    <defs>
        <clipPath id="a">
            <path clip-rule="evenodd" d="M0 0H100V100H0Z"/>
        </clipPath>
    </defs>
    <rect width="100" height="100" fill="none" fill-rule="evenodd"/>
    <path clip-path="url(#a)" fill="#00D563" fill-rule="evenodd" d="M12.334 38.126C11.52 37.932 10.721 37.618 9.959 37.181 5.695 34.729 4.239 29.265 6.691 25 9.142 20.735 14.607 19.28 18.871 21.731 19.634 22.175 20.307 22.713 20.884 23.322L41.452 11.447C41.215 10.644 41.088 9.793 41.088 8.912 41.088 3.984 45.072 0 50 0 54.928 0 58.912 3.984 58.912 8.912 58.912 9.798 58.784 10.653 58.544 11.46L79.106 23.332C79.685 22.719 80.361 22.177 81.129 21.731 85.393 19.28 90.832 20.735 93.309 25 95.761 29.265 94.305 34.704 90.041 37.181 89.279 37.618 88.48 37.932 87.666 38.126V61.88C88.471 62.075 89.262 62.386 90.015 62.819 94.305 65.296 95.761 70.735 93.284 75 90.832 79.265 85.368 80.72 81.103 78.269 80.254 77.781 79.517 77.173 78.899 76.479L58.462 88.279C58.754 89.162 58.912 90.106 58.912 91.088 58.912 95.991 54.928 100 50 100 45.072 100 41.088 96.016 41.088 91.088 41.088 90.212 41.214 89.366 41.448 88.566L20.892 76.698C20.319 77.299 19.652 77.83 18.897 78.269 14.607 80.72 9.168 79.265 6.716 75 4.265 70.735 5.72 65.296 9.985 62.819 10.739 62.386 11.529 62.074 12.334 61.879V38.126ZM43.589 15.108L22.983 27.004C23.625 29.246 23.393 31.732 22.14 33.912 20.885 36.095 18.841 37.542 16.573 38.105V61.891C16.691 61.92 16.808 61.951 16.924 61.985L43.843 15.361C43.757 15.278 43.672 15.194 43.589 15.108ZM77.013 27.018L56.401 15.118C56.323 15.198 56.243 15.278 56.162 15.355L83.082 61.98C83.196 61.947 83.311 61.917 83.427 61.888V38.105C81.159 37.542 79.115 36.095 77.86 33.912 76.61 31.737 76.376 29.256 77.013 27.018ZM56.591 85.084L77.068 73.261C77.007 73.068 76.952 72.873 76.904 72.676H23.094C23.066 72.792 23.035 72.907 23.002 73.021L43.58 84.902C45.2 83.221 47.476 82.176 50 82.176 52.614 82.176 54.962 83.296 56.591 85.084ZM47.517 17.475L20.599 64.098C21.198 64.669 21.728 65.335 22.165 66.088 22.599 66.842 22.91 67.633 23.105 68.437H76.895C77.09 67.632 77.401 66.841 77.835 66.088 78.27 65.33 78.801 64.661 79.403 64.087L52.49 17.473C51.7 17.702 50.865 17.824 50 17.824 49.138 17.824 48.305 17.702 47.517 17.475Z"/>
</svg>