
<svg viewBox="0 0 100 100" xmlns="http://www.w3.org/2000/svg">
    <defs>
        <clipPath id="a">
            <path clip-rule="evenodd" d="M0 0H100V100H0Z"/>
        </clipPath>
    </defs>
    <rect width="100" height="100" fill="none" fill-rule="evenodd"/>
    <g clip-path="url(#a)">
        <path fill="#00D563" fill-rule="evenodd" d="M20.721.019C30.474-.019 40.227.011 49.98.011 59.628.011 69.275-.009 78.922.016 91.029.046 99.957 8.976 99.976 21.124 100.007 40.387 100.01 59.65 99.975 78.914 99.954 90.979 90.968 99.939 78.831 99.966 59.537 100.01 40.242 100.014 20.948 99.963 8.894 99.932.054 91.117.03 79.144 -.007 59.669-.014 40.194.033 20.72 .061 8.901 8.927.064 20.721.019ZM20.745 6.269C12.502 6.3 6.303 12.474 6.283 20.735 6.236 40.2 6.243 59.666 6.28 79.132 6.297 87.527 12.512 93.691 20.964 93.713 40.248 93.764 59.533 93.76 78.817 93.716 87.366 93.697 93.71 87.401 93.725 78.902 93.76 59.646 93.757 40.39 93.726 21.134 93.713 12.58 87.431 6.287 78.906 6.266 69.264 6.241 59.622 6.261 49.98 6.261 40.235 6.261 30.49 6.231 20.745 6.269Z"/>
        <path fill="#00D563" d="M29.525 67.75C29.192 67.75 28.908 67.633 28.675 67.4 28.442 67.167 28.325 66.867 28.325 66.5V34C28.325 33.633 28.442 33.333 28.675 33.1 28.908 32.867 29.192 32.75 29.525 32.75H35.275C35.608 32.75 35.892 32.867 36.125 33.1 36.358 33.333 36.475 33.633 36.475 34V66.5C36.475 66.867 36.358 67.167 36.125 67.4 35.892 67.633 35.608 67.75 35.275 67.75H29.525Z"/>
        <path fill="#00D563" d="M41.825 67.75C41.525 67.75 41.275 67.642 41.075 67.425 40.875 67.208 40.775 66.967 40.775 66.7 40.775 66.533 40.792 66.383 40.825 66.25L52.725 34.1C52.825 33.733 53.025 33.417 53.325 33.15 53.625 32.883 54.042 32.75 54.575 32.75H60.975C61.508 32.75 61.925 32.883 62.225 33.15 62.525 33.417 62.742 33.733 62.875 34.1L74.725 66.25C74.792 66.383 74.825 66.533 74.825 66.7 74.825 66.967 74.717 67.208 74.5 67.425 74.283 67.642 74.025 67.75 73.725 67.75H68.475C68.008 67.75 67.658 67.633 67.425 67.4 67.192 67.167 67.042 66.95 66.975 66.75L64.825 61.15H50.725L48.625 66.75C48.525 66.95 48.367 67.167 48.15 67.4 47.933 67.633 47.575 67.75 47.075 67.75H41.825ZM52.625 54.7H62.925L57.775 40.35 52.625 54.7Z"/>
    </g>
</svg>