
<svg viewBox="0 0 100 100" xmlns="http://www.w3.org/2000/svg">
    <rect width="100" height="100" fill="none" fill-rule="evenodd"/>
    <path fill="#00D563" fill-rule="evenodd" d="M17.708 1.042H82.292C92.083 1.042 100 8.958 100 18.75V80.833C100 90.625 92.083 98.542 82.292 98.542H17.708C7.917 98.542 0 90.625 0 80.833V18.75C0 8.958 7.917 1.042 17.708 1.042ZM48.333 59.375L51.75 69.292C51.833 69.583 52.125 69.792 52.417 69.75H61.125C61.542 69.75 61.667 69.542 61.542 69.083L46.333 26.167C46.292 25.958 46.125 25.833 45.792 25.833H35C34.792 25.875 34.625 26.083 34.667 26.292 34.667 27.208 34.583 28.125 34.417 29 34.25 29.5 34.125 29.958 34 30.375L20.583 69C20.458 69.5 20.583 69.75 21.042 69.75H28.875C29.25 69.792 29.583 69.542 29.667 69.167L32.833 59.375H48.333ZM35.25 50.917C35.875 49.167 36.5 47.208 37.083 45.083 37.75 43 38.375 40.917 39 38.917 39.583 37.125 40.042 35.333 40.417 33.542H40.5C40.792 34.542 41.083 35.625 41.417 36.792 41.75 38 42.125 39.208 42.542 40.5 42.958 41.792 43.333 43.042 43.75 44.333 44.125 45.583 44.5 46.792 44.875 47.917 45.25 49 45.583 50.042 45.833 50.917H35.25ZM70.833 33.125C72.25 33.208 73.667 32.667 74.625 31.667 75.625 30.625 76.125 29.25 76.083 27.833 76.125 26.458 75.625 25.125 74.708 24.125 73.792 23.167 72.542 22.667 70.917 22.667 69.542 22.667 68.208 23.167 67.208 24.125 66.208 25.083 65.667 26.417 65.708 27.833 65.667 29.25 66.167 30.625 67.125 31.667 68.125 32.625 69.458 33.167 70.833 33.125ZM66.167 69.292C66.167 69.708 66.375 69.958 66.792 69.958H74.958C75.333 69.958 75.5 69.75 75.5 69.292V37.208C75.5 36.833 75.333 36.625 74.958 36.625H66.708C66.333 36.625 66.167 36.792 66.167 37.208V69.292Z"/>
</svg>