
<svg viewBox="0 0 100 100" xmlns="http://www.w3.org/2000/svg">
    <rect width="100" height="100" fill="none" fill-rule="evenodd"/>
    <path fill="#00D563" fill-rule="evenodd" d="M17.708 1.25H82.292C92.083 1.25 100 9.167 100 18.958V81.042C100 90.833 92.083 98.75 82.292 98.75H17.708C7.917 98.75 0 90.833 0 81.042V18.958C0 9.167 7.917 1.25 17.708 1.25ZM59.875 70.833C62.042 70.833 64.208 70.625 66.292 70.25 68.625 69.833 70.917 69.167 73.083 68.25 73.375 68.125 73.5 67.875 73.5 67.583 73.458 66.875 73.417 66.042 73.333 65.167 73.292 64.25 73.25 63.417 73.25 62.667V22.917C73.208 22.75 73.042 22.583 72.833 22.625H64.375C64.083 22.625 63.958 22.792 63.958 23.083V36.25C63.458 36.208 63.042 36.208 62.667 36.167 62.292 36.125 62 36.125 61.792 36.125 57.667 36.125 54.167 36.917 51.25 38.542 48.5 40.042 46.208 42.292 44.625 45 43.083 47.667 42.292 50.708 42.333 53.792 42.333 57.583 43.083 60.75 44.625 63.292 46.125 65.75 48.292 67.75 50.917 68.958 53.708 70.25 56.792 70.875 59.875 70.833ZM63.958 62.5C63.5 62.667 63 62.75 62.458 62.708 61.917 62.75 61.333 62.792 60.708 62.792 59.542 62.792 58.375 62.625 57.25 62.25 56.167 61.917 55.208 61.333 54.417 60.583 53.583 59.75 52.958 58.75 52.542 57.625 52.042 56.25 51.792 54.792 51.833 53.333 51.833 51.167 52.292 49.375 53.208 48.042 54.125 46.708 55.333 45.667 56.75 44.958 58.208 44.208 59.833 43.875 61.458 43.875 61.917 43.875 62.375 43.917 62.833 43.958 63.208 44 63.583 44.083 63.958 44.167V62.5ZM35.792 26.75C35.792 26.708 35.792 26.667 35.75 26.625 35.708 26.333 35.458 26.167 35.208 26.208H27.083C26.708 26.208 26.5 26.375 26.5 26.75V69.667C26.5 70.125 26.667 70.333 27.042 70.333H35.208C35.583 70.333 35.792 70.125 35.792 69.667V26.75Z"/>
</svg>