
<svg viewBox="0 0 100 100" xmlns="http://www.w3.org/2000/svg">
    <rect width="100" height="100" fill="none" fill-rule="evenodd"/>
    <path fill="#00D563" fill-rule="evenodd" d="M39.51 68.461C39.661 68.569 39.815 68.672 39.973 68.77L39.732 68.625C40.363 69.028 41.003 69.417 41.65 69.793 41.799 69.877 41.948 69.954 42.078 70.045 42.513 70.278 42.945 70.527 43.376 70.756L43.3 70.718C43.559 70.861 43.823 70.996 44.09 71.123 44.442 71.302 44.801 71.493 45.16 71.661 45.292 71.733 45.427 71.799 45.565 71.86L45.038 71.627C45.668 71.932 46.305 72.225 46.947 72.505 47.066 72.551 47.165 72.605 47.284 72.643 47.826 72.883 48.372 73.113 48.934 73.338L48.976 73.349C49.103 73.393 49.229 73.442 49.354 73.494 49.862 73.689 50.362 73.884 50.881 74.06L51.118 74.151 50.755 74.041C51.591 74.332 52.436 74.598 53.288 74.839 53.891 75.015 54.487 75.206 55.083 75.343 71.182 78.987 88.183 75.714 97.762 63.3 97.762 63.3 86.361 93.89 47.123 86.775 46.508 86.66 45.92 86.443 45.313 86.259 45.168 86.221 45.026 86.171 44.889 86.133 44.293 85.954 43.716 85.763 43.132 85.564L42.941 85.495C42.414 85.308 41.883 85.11 41.367 84.915 41.233 84.865 41.096 84.8 40.966 84.762 40.397 84.54 39.847 84.311 39.297 84.071 39.198 84.017 39.098 83.979 39.007 83.941 38.51 83.727 38.033 83.509 37.574 83.28 37.452 83.219 37.334 83.158 37.208 83.1L37.192 83.116C37.124 83.078 37.055 83.051 36.971 83.024 36.665 82.864 36.367 82.707 36.081 82.547 35.844 82.428 35.607 82.317 35.378 82.188 34.962 81.97 34.534 81.729 34.122 81.492 33.973 81.401 33.812 81.313 33.652 81.233 33.094 80.897 32.536 80.561 31.975 80.201L31.517 79.896 30.443 79.193 30.333 79.105C30.195 79.017 30.061 78.922 29.928 78.826 29.565 78.567 29.187 78.307 28.832 78.04L28.312 77.642C27.98 77.387 27.644 77.142 27.319 76.882L26.842 76.481C26.441 76.168 26.047 75.832 25.658 75.492L25.44 75.301C25.432 75.297 25.428 75.29 25.421 75.29 24.974 74.908 24.55 74.514 24.126 74.117L23.74 73.747C23.416 73.441 23.11 73.132 22.804 72.818L22.789 72.803C22.209 72.314 21.678 71.764 21.185 71.145 21.177 71.134 21.166 71.126 21.166 71.119 20.769 70.676 20.371 70.24 19.997 69.79 19.886 69.667 19.783 69.53 19.68 69.411L18.836 68.388C18.729 68.243 18.614 68.098 18.511 67.952 18.198 67.567 17.908 67.181 17.618 66.787 17.209 66.26 16.827 65.718 16.407 65.065 16.296 64.916 16.204 64.767 16.105 64.618 15.887 64.259 15.639 63.908 15.429 63.549 15.303 63.365 15.196 63.182 15.085 62.995L14.486 61.986C14.383 61.795 14.276 61.604 14.176 61.406 14.115 61.306 14.046 61.196 13.997 61.089 13.89 60.905 13.79 60.722 13.703 60.524 13.55 60.237 13.393 59.954 13.252 59.653 7.045 47.327 6.041 32.233 14.157 20.625L20.467 12.646C13.321 26.381 16.552 43.122 25.482 55.253L25.635 55.467C26.008 55.971 26.39 56.469 26.781 56.96L27.648 58.01C27.755 58.136 27.85 58.262 27.953 58.381 28.346 58.835 28.744 59.285 29.149 59.729L29.214 59.783 29.236 59.809C29.612 60.22 29.998 60.621 30.394 61.012L30.764 61.394C31.085 61.708 31.406 62.009 31.719 62.326L32.101 62.685 33.426 63.888 33.43 63.892C33.892 64.297 34.363 64.69 34.843 65.073L35.294 65.432C35.63 65.707 35.97 65.959 36.306 66.222 36.478 66.348 36.65 66.47 36.81 66.6L36.719 66.535C37.117 66.835 37.522 67.125 37.933 67.406 38.067 67.498 38.186 67.59 38.315 67.674 38.706 67.948 39.104 68.211 39.51 68.461ZM39.51 68.461C39.507 68.458 39.503 68.455 39.499 68.453L39.522 68.468C39.518 68.466 39.514 68.463 39.51 68.461ZM66.657 49.972L66.515 49.932C67.153 50.137 67.797 50.322 68.447 50.486 81.468 53.851 93.686 49.542 100 40.502 100 40.502 92.987 63.713 62.687 58.725 62.095 58.633 61.53 58.408 60.973 58.236L60.438 58.064C60.052 57.93 59.643 57.796 59.254 57.651 59.074 57.594 58.895 57.518 58.704 57.453 58.28 57.292 57.848 57.117 57.424 56.933 57.313 56.88 57.203 56.838 57.073 56.788 56.557 56.555 56.03 56.318 55.514 56.066L55.392 56.013C55.148 55.883 54.896 55.749 54.64 55.623 54.51 55.551 54.388 55.493 54.262 55.417 53.903 55.234 53.528 55.031 53.185 54.821 53.124 54.794 53.066 54.76 53.001 54.733 52.593 54.485 52.195 54.244 51.791 53.985 51.676 53.916 51.554 53.824 51.447 53.755 51.179 53.587 50.927 53.431 50.69 53.259L50.633 53.224C50.072 52.831 49.533 52.438 48.998 52.025 48.872 51.937 48.762 51.834 48.632 51.746L48.552 51.685C48.021 51.273 47.505 50.849 47.047 50.444L46.989 50.394C46.535 49.986 46.088 49.577 45.653 49.157L45.309 48.813C44.847 48.358 44.404 47.912 43.991 47.442 42.83 46.441 41.867 44.982 40.997 43.737 40.061 42.415 39.213 41.029 38.376 39.386 33.793 30.495 33.461 19.258 39.347 10.851L44.14 4.098C40.24 10.656 39.744 18.738 42.001 25.946 44.144 32.878 48.659 39.001 54.384 43.481 54.502 43.58 54.621 43.672 54.743 43.783 55.289 44.18 55.828 44.589 56.378 44.971L57.172 45.486C57.294 45.563 57.413 45.65 57.543 45.723 57.932 45.979 58.352 46.223 58.757 46.475L58.746 46.472C58.825 46.523 58.908 46.569 58.994 46.609 59.33 46.804 59.655 46.995 60.006 47.178L60.461 47.407 61.248 47.816C61.771 48.068 62.309 48.305 62.844 48.546 62.943 48.603 63.062 48.641 63.192 48.698 63.608 48.882 64.043 49.042 64.471 49.214L65.021 49.42C65.407 49.562 65.816 49.695 66.213 49.833 66.364 49.879 66.504 49.928 66.657 49.972ZM66.657 49.972L66.732 49.993C66.707 49.986 66.682 49.979 66.657 49.972ZM97.523 23.717C96.295 25.478 91.752 37.192 75.047 33.986 74.684 33.906 74.329 33.776 73.978 33.665L73.642 33.562C73.386 33.47 73.145 33.39 72.897 33.294 66.847 31.087 61.656 26.427 59.116 20.492 56.725 14.904 57.058 8.609 60.529 3.541L63.1 0C58.318 8.59 62.848 19.136 70.174 24.674 71.423 25.621 72.767 26.446 74.333 27.21L74.188 27.145C75.003 27.536 75.839 27.881 76.694 28.176L76.567 28.134C77.254 28.393 77.955 28.61 78.668 28.784 86.86 30.765 93.538 29.4 97.523 23.717ZM97.523 23.717C97.525 23.713 97.527 23.71 97.529 23.708 97.527 23.711 97.525 23.714 97.523 23.717Z"/>
</svg>