
<svg viewBox="0 0 640 640" xmlns="http://www.w3.org/2000/svg">
    <path fill="#00D563" fill-rule="evenodd" d="M576 192C611.3 192 640 220.7 640 255.1V448.87C640 483.22 611.25 511.97 576 511.97H544L416 512 319.1 511.076C284.75 511.076 256 483.226 256 447.976V415.996L288 416V448C288 465.64 302.36 480 320 480H576C593.64 480 608 465.64 608 448V256C608 238.36 593.64 224 576 224H448V192H576ZM416 320C416 355.3 387.3 383.9 352 383.925L64 384C28.75 384 0 355.3 0 319.1V127.1C0 92.75 28.75 64 64 64H352C387.3 64 416 92.75 416 127.1V320ZM352 352C369.64 352 384 337.64 384 320V128C384 110.36 369.64 96 352 96H64C46.36 96 32 110.36 32 128V320C32 337.6 46.36 352 64 352H352ZM286.903 298.099C290.103 306.299 286.103 315.599 277.903 318.899 269.703 322.099 260.403 318.099 257.103 309.899L248.403 287.099H167.603L158.903 309.899C155.603 318.099 146.263 322.099 138.063 318.899 129.853 315.599 125.863 306.299 129.143 298.099L193.103 138.099C195.603 131.099 201.503 127.999 208.003 127.999 214.503 127.999 220.403 131.099 222.903 138.099L286.903 298.099ZM180.403 255.999H235.603L208.003 187.099 180.403 255.999ZM464 288.438H528C536.8 288.438 544 295.638 544 304.438 544 313.238 536.8 320.438 528 320.438H523.2L519 332.038C509.5 358.138 494.6 381.538 475.5 401.038 478.7 403.238 481.1 405.338 485.3 407.338L504.2 418.738C511.8 423.238 514.3 433.138 509.7 440.638 505.2 448.238 495.3 450.738 487.8 446.138L468.9 434.838C462.5 431.038 456.4 426.838 450.4 421.538 442.2 428.338 433.6 433.538 424.4 438.138L407.2 446.738C399.3 450.738 389.6 447.538 385.7 439.638 381.7 431.738 384.9 422.038 392.8 418.138L410.1 409.538C415.5 406.838 420.6 403.838 425.6 400.638L404.7 379.738C398.4 373.538 398.4 363.338 404.7 357.138 410.9 350.838 421.1 350.838 427.3 357.138L450.7 380.538C467.6 363.938 480.7 343.638 488.9 321.038L489.2 319.538H431.987L432 271.538C432 263.638 439.2 255.538 448 255.538 456.8 255.538 464 263.638 464 271.538V288.438Z" transform="translate(0 32)"/>
</svg>