
<svg viewBox="0 0 337 337" xmlns="http://www.w3.org/2000/svg">
    <path fill="#00D563" d="M51.456 39.051C51.456 52.157 61.425 61.562 74.128 61.562 87.233 61.562 97.122 51.835 97.122 38.89 97.122 25.784 87.233 16.298 74.45 16.298 61.344 16.298 51.456 26.106 51.456 39.051V39.051ZM74.288 28.116C77.987 28.116 80.801 30.126 82.57 33.343 83.373 35.031 83.776 36.88 83.776 38.97 83.776 44.519 80.158 49.744 74.288 49.744 70.751 49.744 67.616 47.653 66.088 44.438 65.203 42.829 64.802 40.981 64.802 38.97 64.802 33.343 68.339 28.116 74.288 28.116V28.116ZM104.226 17.504C103.877 17.504 103.543 17.643 103.296 17.889 103.05 18.136 102.912 18.47 102.912 18.819V41.061C102.912 53.362 110.629 61.562 122.77 61.562 135.392 61.562 142.789 53.04 142.789 41.061V18.819C142.789 18.47 142.651 18.136 142.404 17.889 142.158 17.643 141.824 17.504 141.475 17.504H130.998C130.273 17.504 129.684 18.092 129.684 18.819 129.684 23.808 129.684 41.302 129.684 41.302 129.684 45.805 127.835 49.744 122.85 49.744 117.946 49.744 116.016 45.644 116.016 41.302V18.819C116.016 18.092 115.428 17.504 114.701 17.504 112.19 17.504 106.737 17.504 104.226 17.504ZM200.033 59.043C200.033 59.391 200.173 59.726 200.419 59.972 200.666 60.219 201 60.357 201.348 60.357 203.86 60.357 209.313 60.357 211.824 60.357 212.173 60.357 212.507 60.219 212.754 59.972 213 59.726 213.138 59.391 213.138 59.043 213.138 51.09 213.138 9.484 213.138 1.533 213.138 1.184 213 .85 212.754.603 212.507.357 212.173.219 211.824.219 209.313.219 203.86.219 201.348.219 201 .219 200.666.357 200.419.603 200.173.85 200.033 1.184 200.033 1.533 200.033 9.484 200.033 51.09 200.033 59.043ZM240.957 61.562C248.785 61.562 256.684 57.969 260.43 50.979 260.615 50.627 260.629 50.21 260.467 49.845 260.307 49.481 259.988 49.21 259.603 49.109 257.039 48.429 251.957 47.1 249.976 46.581 249.487 46.454 248.968 46.617 248.642 47.001 246.614 49.388 244.378 50.548 241.118 50.548 236.354 50.548 233.653 47.419 232.545 43.167 232.496 42.972 232.538 42.762 232.663 42.603 232.788 42.443 232.978 42.348 233.181 42.348 237.292 42.347 255.549 42.347 260.626 42.347 260.975 42.347 261.31 42.209 261.556 41.962 261.803 41.716 261.941 41.382 261.941 41.033 261.941 40.267 261.941 39.452 261.941 39.452 261.941 26.106 253.981 16.298 240.555 16.298 227.772 16.298 218.928 26.589 218.928 38.81 218.928 51.995 227.932 61.562 240.957 61.562V61.562ZM240.555 26.106C245.086 26.106 247.42 29.157 248.285 33.194 248.326 33.387 248.277 33.588 248.152 33.741 248.028 33.895 247.841 33.984 247.643 33.984 244.919 33.986 235.944 33.986 233.175 33.986 232.972 33.986 232.782 33.893 232.657 33.733 232.533 33.574 232.488 33.366 232.537 33.169 233.558 29.146 236.033 26.106 240.555 26.106ZM45.666 38.931C45.646 51.854 35.764 61.562 22.672 61.562 9.969 61.562 0 52.157 0 39.051 0 26.106 9.888 16.298 22.994 16.298 26.439 16.298 29.673 16.987 32.561 18.251 32.561 18.251 32.551 5.687 32.549 1.533 32.549 1.185 32.687.85 32.933.603 33.18.357 33.514.219 33.863.219 36.377.219 41.838.219 44.352.219 45.077.219 45.666.806 45.666 1.533 45.666 8.299 45.666 38.89 45.666 38.89 45.666 38.903 45.666 38.917 45.666 38.931ZM22.834 28.116C16.884 28.116 13.346 33.343 13.346 38.97 13.346 40.981 13.748 42.829 14.632 44.438 16.16 47.653 19.295 49.744 22.834 49.744 28.702 49.744 32.32 44.519 32.32 38.97 32.32 36.88 31.919 35.031 31.114 33.343 29.346 30.126 26.532 28.116 22.834 28.116ZM148.578 38.931C148.599 51.854 158.481 61.562 171.573 61.562 184.275 61.562 194.245 52.157 194.245 39.051 194.245 26.106 184.356 16.298 171.251 16.298 167.806 16.298 164.57 16.987 161.684 18.251 161.684 18.251 161.662 5.681 161.654 1.53 161.652.805 161.065.219 160.339.219 157.835.219 152.399.219 149.893.219 149.167.219 148.578.806 148.578 1.533 148.578 8.299 148.578 38.89 148.578 38.89 148.578 38.903 148.578 38.917 148.578 38.931V38.931ZM171.411 28.116C177.361 28.116 180.899 33.343 180.899 38.97 180.899 40.981 180.496 42.829 179.612 44.438 178.085 47.653 174.949 49.744 171.411 49.744 165.542 49.744 161.925 44.519 161.925 38.97 161.925 36.88 162.326 35.031 163.13 33.343 164.899 30.126 167.713 28.116 171.411 28.116ZM297.949 60.357C297.223 60.357 296.634 59.768 296.634 59.043 296.634 54.052 296.634 36.558 296.634 36.558 296.634 32.056 294.786 28.115 289.8 28.115 284.895 28.115 282.966 32.216 282.966 36.558V37.816C282.966 38.165 282.828 38.499 282.581 38.746 282.335 38.992 282.001 39.131 281.652 39.131 279.14 39.131 273.686 39.131 271.175 39.131 270.449 39.131 269.861 38.543 269.861 37.816 269.861 37.288 269.861 36.799 269.861 36.799 269.861 24.497 277.579 16.297 289.721 16.297 295.284 16.297 299.833 17.952 303.179 20.829 306.542 17.93 311.079 16.298 316.494 16.298 329.116 16.298 336.513 24.82 336.513 36.8V59.043C336.513 59.391 336.375 59.726 336.128 59.972 335.882 60.219 335.548 60.357 335.198 60.357H324.722C323.996 60.357 323.408 59.768 323.408 59.043 323.408 54.052 323.408 36.559 323.408 36.559 323.408 32.056 321.559 28.116 316.574 28.116 311.669 28.116 309.74 32.217 309.74 36.559 309.741 36.628 309.741 54.061 309.74 59.041 309.741 59.391 309.601 59.725 309.355 59.971 309.108 60.219 308.774 60.357 308.425 60.357 305.914 60.357 300.461 60.357 297.949 60.357V60.357Z"/>
    <circle cx="276.413" cy="51.673" r="8.682" fill="#00D563" fill-rule="evenodd"/>
</svg>