
<svg viewBox="0 0 100 100" xmlns="http://www.w3.org/2000/svg">
    <rect width="100" height="100" fill="none" fill-rule="evenodd"/>
    <path fill="#00D563" fill-rule="evenodd" d="M100 65.8V81.838C100 91.835 92.155 99.926 82.426 99.999L65.234 100 45.49 65.8H100ZM34 53.693L60.734 100 17.575 99.998 17.177 99.992C14.083 99.899 11.189 98.994 8.692 97.478L34 53.693ZM38.75 37.672L5.596 95.095C2.209 91.838.074 87.229.003 82.101L0 75.344 21.75 37.672H38.75ZM41.001-.001L.001 71.014V18.162C.001 8.12 7.918 0 17.709 0H41.001ZM45.763 37.599L54.245 37.602H54.296C55.777 37.608 57.194 38.478 57.96 39.768 57.968 39.781 57.983 39.807 57.983 39.807L62.478 47.594 62.516 47.658C63.251 48.944 63.279 50.563 62.545 51.872 61.038 54.508 59.508 57.132 57.99 59.762 57.244 61.041 55.832 61.876 54.332 61.895 53.923 61.896 53.456 61.898 52.954 61.899L52.18 61.9H51.981 45.911C45.87 61.9 45.722 61.9 45.722 61.9 44.241 61.894 42.801 61.104 42.035 59.814 42.018 59.786 41.985 59.729 41.985 59.729 41.985 59.729 37.489 51.942 37.479 51.923 36.744 50.638 36.745 48.978 37.479 47.669L37.512 47.611C37.512 47.611 40.521 42.389 42.028 39.779 42.774 38.499 44.188 37.619 45.688 37.601 45.713 37.601 45.763 37.599 45.763 37.599ZM100 18.162V61.9H61.261L94.252 4.76C97.786 8.079 100 12.852 100 18.162ZM82.292-.001C85.505-.001 88.516.874 91.112 2.404L65.999 45.899 41.5 3.464 43.5-.001H82.292ZM39.25 7.361L54.499 33.775H24L39.25 7.361Z"/>
</svg>