
<svg viewBox="0 0 100 100" xmlns="http://www.w3.org/2000/svg">
    <rect width="100" height="100" fill="none" fill-rule="evenodd"/>
    <path fill="#00D563" fill-rule="evenodd" d="M17.708 1.25H82.292C92.083 1.25 100 9.167 100 18.958V81.042C100 90.833 92.083 98.75 82.292 98.75H17.708C7.917 98.75 0 90.833 0 81.042V18.958C0 9.167 7.917 1.25 17.708 1.25ZM22.5 69.625C22.5 70 22.667 70.167 23 70.167H31.083C31.375 70.125 31.583 69.875 31.542 69.583V56.208C32.333 56.208 32.917 56.208 33.333 56.25 33.75 56.292 34.417 56.292 35.417 56.292 38.833 56.292 41.958 55.917 44.792 54.875 47.5 53.875 49.833 52.125 51.5 49.792 53.167 47.458 54 44.5 54 40.917 54 39.042 53.667 37.25 53.042 35.5 52.375 33.708 51.333 32.083 50 30.75 48.417 29.208 46.5 28.042 44.417 27.333 42.083 26.458 39.25 26.042 35.833 26.042 34.583 26.042 33.333 26.042 32.042 26.083 30.75 26.125 29.542 26.125 28.417 26.167 27.292 26.208 26.25 26.208 25.25 26.25 24.292 26.292 23.625 26.292 22.917 26.292 22.625 26.292 22.5 26.458 22.5 26.75V69.625ZM31.583 34.333C31.875 34.292 32.458 34.25 33.292 34.292 34.083 34.25 35.042 34.25 36.125 34.25 37.833 34.208 39.5 34.458 41.042 35.083 42.25 35.542 43.25 36.375 43.958 37.458 44.625 38.583 44.958 39.875 44.917 41.167 44.917 43 44.5 44.417 43.625 45.458 42.708 46.5 41.542 47.292 40.208 47.667 38.667 48.167 37.042 48.417 35.417 48.417H33.208C32.708 48.417 32.167 48.375 31.583 48.333V34.333ZM80 45.792C80.167 45.875 80.375 45.875 80.75 45.792 80.875 45.708 80.958 45.542 80.958 45.375V38.583C80.958 38.417 80.917 38.25 80.875 38.083 80.792 37.917 80.625 37.75 80.458 37.708 79.333 37.25 78.125 36.917 76.875 36.75 75.167 36.5 73.417 36.375 71.708 36.375 68.75 36.375 66.292 36.833 64.333 37.833 62.542 38.667 61 40 59.958 41.667 59.042 43.208 58.542 44.917 58.542 46.708 58.5 48.167 58.833 49.625 59.5 50.958 60.292 52.375 61.375 53.583 62.667 54.5 64.5 55.75 66.458 56.75 68.583 57.5 70.625 58.292 72 58.917 72.667 59.458 73.333 60 73.667 60.542 73.667 61.125 73.667 61.875 73.208 62.583 72.542 62.875 71.792 63.25 70.667 63.458 69.083 63.458 67.417 63.458 65.75 63.25 64.167 62.833 62.333 62.417 60.625 61.75 59 60.792 58.875 60.708 58.75 60.667 58.625 60.75 58.5 60.833 58.458 61 58.458 61.125V68.375C58.417 68.708 58.625 69 58.917 69.167 60.25 69.792 61.708 70.25 63.167 70.5 65.042 70.875 66.917 71.042 68.833 71.042 71.833 71.042 74.333 70.583 76.375 69.708 78.25 68.958 79.875 67.667 81.042 66 82.125 64.375 82.708 62.417 82.667 60.458 82.708 58.958 82.375 57.5 81.708 56.167 80.917 54.75 79.792 53.583 78.417 52.708 76.417 51.458 74.25 50.417 72 49.667 71 49.25 70 48.792 69.042 48.292 68.5 48 68 47.625 67.625 47.167 67.375 46.833 67.208 46.458 67.208 46.083 67.208 45.708 67.333 45.292 67.542 44.958 67.833 44.542 68.292 44.25 68.833 44.125 69.625 43.917 70.5 43.792 71.333 43.833 72.917 43.833 74.458 44.042 76 44.375 77.417 44.667 78.75 45.125 80 45.792Z"/>
</svg>