
<svg viewBox="0 0 100 100" xmlns="http://www.w3.org/2000/svg">
    <defs>
        <clipPath id="a">
            <path clip-rule="evenodd" d="M0 0H100V100H0Z"/>
        </clipPath>
    </defs>
    <rect width="100" height="100" fill="none" fill-rule="evenodd"/>
    <path clip-path="url(#a)" fill="#00D563" fill-rule="evenodd" d="M20.721.019C30.474-.019 40.227.011 49.98.011 59.628.011 69.275-.008 78.922.016 91.029.046 99.957 8.976 99.976 21.125 100.007 40.387 100.01 59.65 99.975 78.914 99.954 90.98 90.968 99.939 78.831 99.967 59.537 100.01 40.242 100.014 20.948 99.963 8.894 99.932.054 91.117.03 79.144 -.007 59.669-.014 40.194.033 20.72 .061 8.901 8.927.064 20.721.019ZM82.42 16.667C81.446 21.848 79.711 26.817 75.277 29.86 70.436 33.184 65.303 36.265 59.917 38.569 53.253 41.421 46.015 42.934 39.351 45.788 23.849 52.427 15.055 67.048 16.912 82.568 17.432 81.223 17.838 80.169 18.246 79.116 21.157 71.611 26.254 66.377 34.079 64.029 37.331 63.053 40.589 62.071 43.893 61.296 54.715 58.758 64.878 54.862 73.273 47.297 82.534 38.952 84.884 28.524 82.42 16.667Z"/>
</svg>