
<svg viewBox="0 0 100 100" xmlns="http://www.w3.org/2000/svg">
    <defs>
        <clipPath id="a">
            <path clip-rule="evenodd" d="M0 0H100V100H0Z"/>
        </clipPath>
    </defs>
    <rect width="100" height="100" fill="none" fill-rule="evenodd"/>
    <path clip-path="url(#a)" fill="#00D563" fill-rule="evenodd" d="M36.75 11.691L87.309 99.263C85.76 99.73 84.121 99.987 82.426 99.999L70.735 100 28.5 25.981 36.75 11.691ZM26 30.31L66.235 100H49.235L49.21 99.957C48.714 99.098 40.904 85.565 33.154 72.141L32.38 70.8 31.556 69.373C26.898 61.305 22.448 53.599 19.835 49.078 18.389 46.575 18.388 43.49 19.834 40.986 20.157 40.426 22.298 36.72 22.298 36.72 24.26 33.323 26 30.31 26 30.31ZM15.25 48.93L44.735 100 17.575 99.998 17.177 99.992C7.632 99.704.001 91.698.001 81.838L-.001 75.344 15.25 48.93ZM51.5 0L99.896 83.819C99.265 89.806 95.805 94.914 90.913 97.712L39 7.794 43.5 0H51.5ZM82.292 0C92.083 0 100 8.12 100 18.162V76.21L56 0H82.292ZM41 0L-.001 71.014 .001 18.162C.001 8.12 7.918 0 17.709 0H41Z"/>
</svg>