
<svg viewBox="0 0 100 100" xmlns="http://www.w3.org/2000/svg">
    <rect width="100" height="100" fill="none" fill-rule="evenodd"/>
    <path fill="#00D563" d="M50 94.792L49.841 94.608 49.87 94.555 50 94.792ZM0 37.5H18.516L49.861 94.54 49.832 94.6 0 37.5ZM77.352 37.5L49.871 94.52 22.645 37.5H77.352ZM21.875 8.333L18.397 34.67 -.001 37.5 21.875 8.333ZM50 5.208L75.211 34.375H24.789L50 5.208ZM78.125 8.333V32.865L50 5.208 78.125 8.333ZM100 37.5L81.603 34.67 78.125 8.333 100 37.5ZM50 94.792L49.879 94.539 81.224 37.5H100L50 94.792ZM21.875 8.333L50 5.208 21.875 32.865V8.333Z"/>
</svg>