
<svg viewBox="0 0 100 100" xmlns="http://www.w3.org/2000/svg">
    <defs>
        <clipPath id="a">
            <path clip-rule="evenodd" d="M0 0H100V100H0Z"/>
        </clipPath>
    </defs>
    <rect width="100" height="100" fill="none" fill-rule="evenodd"/>
    <g clip-path="url(#a)">
        <path fill="#00D563" fill-rule="evenodd" d="M20.721.019C30.474-.019 40.227.011 49.98.011 59.628.011 69.275-.009 78.922.016 91.029.046 99.957 8.976 99.976 21.124 100.007 40.387 100.01 59.65 99.975 78.914 99.954 90.979 90.968 99.939 78.831 99.966 59.537 100.01 40.242 100.014 20.948 99.963 8.894 99.932.054 91.117.03 79.144 -.007 59.669-.014 40.194.033 20.72 .061 8.901 8.927.064 20.721.019ZM20.745 6.269C12.502 6.3 6.303 12.474 6.283 20.735 6.236 40.2 6.243 59.666 6.28 79.132 6.297 87.527 12.512 93.691 20.964 93.713 40.248 93.764 59.533 93.76 78.817 93.716 87.366 93.697 93.71 87.401 93.725 78.902 93.76 59.646 93.757 40.39 93.726 21.134 93.713 12.58 87.431 6.287 78.906 6.266 69.264 6.241 59.622 6.261 49.98 6.261 40.235 6.261 30.49 6.231 20.745 6.269Z"/>
        <path fill="#00D563" d="M42.25 68.25C39.317 68.25 36.75 67.758 34.55 66.775 32.35 65.792 30.65 64.275 29.45 62.225 28.25 60.175 27.65 57.567 27.65 54.4V34C27.65 33.633 27.767 33.333 28 33.1 28.233 32.867 28.517 32.75 28.85 32.75H34.35C34.717 32.75 35.017 32.867 35.25 33.1 35.483 33.333 35.6 33.633 35.6 34V54.35C35.6 56.783 36.183 58.6 37.35 59.8 38.517 61 40.15 61.6 42.25 61.6 44.317 61.6 45.933 61 47.1 59.8 48.267 58.6 48.85 56.783 48.85 54.35V34C48.85 33.633 48.975 33.333 49.225 33.1 49.475 32.867 49.767 32.75 50.1 32.75H55.6C55.933 32.75 56.217 32.867 56.45 33.1 56.683 33.333 56.8 33.633 56.8 34V54.4C56.8 57.567 56.208 60.175 55.025 62.225 53.842 64.275 52.158 65.792 49.975 66.775 47.792 67.758 45.217 68.25 42.25 68.25Z"/>
        <path fill="#00D563" d="M65.1 67.75C64.767 67.75 64.483 67.633 64.25 67.4 64.017 67.167 63.9 66.867 63.9 66.5V34C63.9 33.633 64.017 33.333 64.25 33.1 64.483 32.867 64.767 32.75 65.1 32.75H70.85C71.183 32.75 71.467 32.867 71.7 33.1 71.933 33.333 72.05 33.633 72.05 34V66.5C72.05 66.867 71.933 67.167 71.7 67.4 71.467 67.633 71.183 67.75 70.85 67.75H65.1Z"/>
    </g>
</svg>