
<svg viewBox="0 0 100 100" xmlns="http://www.w3.org/2000/svg">
    <defs>
        <clipPath id="a">
            <path clip-rule="evenodd" d="M0 0H100V100H0Z"/>
        </clipPath>
    </defs>
    <rect width="100" height="100" fill="none" fill-rule="evenodd"/>
    <g clip-path="url(#a)">
        <path fill="#00D563" fill-rule="evenodd" d="M20.721.019C30.474-.019 40.227.011 49.98.011 59.628.011 69.275-.009 78.922.016 91.029.046 99.957 8.976 99.976 21.124 100.007 40.387 100.01 59.65 99.975 78.914 99.954 90.979 90.968 99.939 78.831 99.966 59.537 100.01 40.242 100.014 20.948 99.963 8.894 99.932.054 91.117.03 79.144 -.007 59.669-.014 40.194.033 20.72 .061 8.901 8.927.064 20.721.019ZM20.745 6.269C12.502 6.3 6.303 12.474 6.283 20.735 6.236 40.2 6.243 59.666 6.28 79.132 6.297 87.527 12.512 93.691 20.964 93.713 40.248 93.764 59.533 93.76 78.817 93.716 87.366 93.697 93.71 87.401 93.725 78.902 93.76 59.646 93.757 40.39 93.726 21.134 93.713 12.58 87.431 6.287 78.906 6.266 69.264 6.241 59.622 6.261 49.98 6.261 40.235 6.261 30.49 6.231 20.745 6.269Z"/>
        <path fill="#00D563" d="M32.975 68.25C30.042 68.25 27.475 67.758 25.275 66.775 23.075 65.792 21.375 64.275 20.175 62.225 18.975 60.175 18.375 57.567 18.375 54.4V34C18.375 33.633 18.492 33.333 18.725 33.1 18.958 32.867 19.242 32.75 19.575 32.75H25.075C25.442 32.75 25.742 32.867 25.975 33.1 26.208 33.333 26.325 33.633 26.325 34V54.35C26.325 56.783 26.908 58.6 28.075 59.8 29.242 61 30.875 61.6 32.975 61.6 35.042 61.6 36.658 61 37.825 59.8 38.992 58.6 39.575 56.783 39.575 54.35V34C39.575 33.633 39.7 33.333 39.95 33.1 40.2 32.867 40.492 32.75 40.825 32.75H46.325C46.658 32.75 46.942 32.867 47.175 33.1 47.408 33.333 47.525 33.633 47.525 34V54.4C47.525 57.567 46.933 60.175 45.75 62.225 44.567 64.275 42.883 65.792 40.7 66.775 38.517 67.758 35.942 68.25 32.975 68.25Z"/>
        <path fill="#00D563" d="M55.825 67.75C55.492 67.75 55.208 67.633 54.975 67.4 54.742 67.167 54.625 66.867 54.625 66.5V34C54.625 33.633 54.742 33.333 54.975 33.1 55.208 32.867 55.492 32.75 55.825 32.75H69.125C73.292 32.75 76.575 33.708 78.975 35.625 81.375 37.542 82.575 40.3 82.575 43.9 82.575 46.333 81.992 48.367 80.825 50 79.658 51.633 78.092 52.85 76.125 53.65L83.225 66.15C83.325 66.35 83.375 66.533 83.375 66.7 83.375 66.967 83.267 67.208 83.05 67.425 82.833 67.642 82.592 67.75 82.325 67.75H76.725C76.125 67.75 75.675 67.592 75.375 67.275 75.075 66.958 74.858 66.667 74.725 66.4L68.625 54.95H62.575V66.5C62.575 66.867 62.458 67.167 62.225 67.4 61.992 67.633 61.692 67.75 61.325 67.75H55.825ZM62.575 48.6H69.025C70.825 48.6 72.167 48.183 73.05 47.35 73.933 46.517 74.375 45.35 74.375 43.85 74.375 42.35 73.942 41.167 73.075 40.3 72.208 39.433 70.858 39 69.025 39H62.575V48.6Z"/>
    </g>
</svg>