
<svg viewBox="0 0 100 100" xmlns="http://www.w3.org/2000/svg">
    <defs>
        <clipPath id="a">
            <path clip-rule="evenodd" d="M0 0H100V100H0Z"/>
        </clipPath>
    </defs>
    <rect width="100" height="100" fill="none" fill-rule="evenodd"/>
    <g clip-path="url(#a)">
        <path fill="#00D563" fill-rule="evenodd" d="M20.721.019C30.474-.019 40.227.011 49.98.011 59.628.011 69.275-.009 78.922.016 91.029.046 99.957 8.976 99.976 21.124 100.007 40.387 100.01 59.65 99.975 78.914 99.954 90.979 90.968 99.939 78.831 99.966 59.537 100.01 40.242 100.014 20.948 99.963 8.894 99.932.054 91.117.03 79.144 -.007 59.669-.014 40.194.033 20.72 .061 8.901 8.927.064 20.721.019ZM20.745 6.269C12.502 6.3 6.303 12.474 6.283 20.735 6.236 40.2 6.243 59.666 6.28 79.132 6.297 87.527 12.512 93.691 20.964 93.713 40.248 93.764 59.533 93.76 78.817 93.716 87.366 93.697 93.71 87.401 93.725 78.902 93.76 59.646 93.757 40.39 93.726 21.134 93.713 12.58 87.431 6.287 78.906 6.266 69.264 6.241 59.622 6.261 49.98 6.261 40.235 6.261 30.49 6.231 20.745 6.269Z"/>
        <path fill="#00D563" d="M34.6 68.25C31.667 68.25 29.1 67.758 26.9 66.775 24.7 65.792 23 64.275 21.8 62.225 20.6 60.175 20 57.567 20 54.4V34C20 33.633 20.117 33.333 20.35 33.1 20.583 32.867 20.867 32.75 21.2 32.75H26.7C27.067 32.75 27.367 32.867 27.6 33.1 27.833 33.333 27.95 33.633 27.95 34V54.35C27.95 56.783 28.533 58.6 29.7 59.8 30.867 61 32.5 61.6 34.6 61.6 36.667 61.6 38.283 61 39.45 59.8 40.617 58.6 41.2 56.783 41.2 54.35V34C41.2 33.633 41.325 33.333 41.575 33.1 41.825 32.867 42.117 32.75 42.45 32.75H47.95C48.283 32.75 48.567 32.867 48.8 33.1 49.033 33.333 49.15 33.633 49.15 34V54.4C49.15 57.567 48.558 60.175 47.375 62.225 46.192 64.275 44.508 65.792 42.325 66.775 40.142 67.758 37.567 68.25 34.6 68.25Z"/>
        <path fill="#00D563" d="M65.2 67.75C64.833 67.75 64.533 67.633 64.3 67.4 64.067 67.167 63.95 66.867 63.95 66.5V39.75H54.85C54.517 39.75 54.233 39.633 54 39.4 53.767 39.167 53.65 38.867 53.65 38.5V34C53.65 33.633 53.767 33.333 54 33.1 54.233 32.867 54.517 32.75 54.85 32.75H81.05C81.417 32.75 81.717 32.867 81.95 33.1 82.183 33.333 82.3 33.633 82.3 34V38.5C82.3 38.867 82.183 39.167 81.95 39.4 81.717 39.633 81.417 39.75 81.05 39.75H72V66.5C72 66.867 71.883 67.167 71.65 67.4 71.417 67.633 71.117 67.75 70.75 67.75H65.2Z"/>
    </g>
</svg>