
<svg viewBox="0 0 100 100" xmlns="http://www.w3.org/2000/svg">
    <defs>
        <clipPath id="a">
            <path clip-rule="evenodd" d="M0 0H100V100H0Z"/>
        </clipPath>
    </defs>
    <rect width="100" height="100" fill="none" fill-rule="evenodd"/>
    <g clip-path="url(#a)">
        <path fill="#00D563" fill-rule="evenodd" d="M20.721.019C30.474-.019 40.227.011 49.98.011 59.628.011 69.275-.008 78.922.016 91.029.046 99.957 8.976 99.976 21.125 100.007 40.387 100.01 59.65 99.975 78.914 99.954 90.98 90.968 99.939 78.831 99.967 59.537 100.01 40.242 100.014 20.948 99.963 8.894 99.932.054 91.117.03 79.144 -.007 59.669-.014 40.194.033 20.72 .061 8.901 8.927.064 20.721.019ZM20.745 6.269C12.502 6.3 6.303 12.474 6.283 20.735 6.236 40.2 6.243 59.666 6.28 79.132 6.297 87.527 12.512 93.691 20.964 93.713 40.248 93.764 59.533 93.76 78.817 93.717 87.366 93.697 93.71 87.401 93.725 78.902 93.76 59.646 93.757 40.39 93.726 21.134 93.713 12.58 87.431 6.287 78.906 6.266 69.264 6.242 59.622 6.261 49.98 6.261 40.235 6.261 30.49 6.231 20.745 6.269Z"/>
        <path fill="#00D563" d="M33.225 68.25C30.292 68.25 27.725 67.758 25.525 66.775 23.325 65.792 21.625 64.275 20.425 62.225 19.225 60.175 18.625 57.567 18.625 54.4V34C18.625 33.633 18.742 33.333 18.975 33.1 19.208 32.867 19.492 32.75 19.825 32.75H25.325C25.692 32.75 25.992 32.867 26.225 33.1 26.458 33.333 26.575 33.633 26.575 34V54.35C26.575 56.783 27.158 58.6 28.325 59.8 29.492 61 31.125 61.6 33.225 61.6 35.292 61.6 36.908 61 38.075 59.8 39.242 58.6 39.825 56.783 39.825 54.35V34C39.825 33.633 39.95 33.333 40.2 33.1 40.45 32.867 40.742 32.75 41.075 32.75H46.575C46.908 32.75 47.192 32.867 47.425 33.1 47.658 33.333 47.775 33.633 47.775 34V54.4C47.775 57.567 47.183 60.175 46 62.225 44.817 64.275 43.133 65.792 40.95 66.775 38.767 67.758 36.192 68.25 33.225 68.25Z"/>
        <path fill="#00D563" d="M52.775 67.75C52.475 67.75 52.225 67.642 52.025 67.425 51.825 67.208 51.725 66.967 51.725 66.7 51.725 66.6 51.742 66.5 51.775 66.4 51.808 66.3 51.842 66.2 51.875 66.1L62.925 49.9 52.625 34.4C52.525 34.2 52.475 34 52.475 33.8 52.475 33.533 52.575 33.292 52.775 33.075 52.975 32.858 53.225 32.75 53.525 32.75H59.675C60.142 32.75 60.5 32.867 60.75 33.1 61 33.333 61.192 33.55 61.325 33.75L68.025 43.7 74.725 33.75C74.858 33.55 75.058 33.333 75.325 33.1 75.592 32.867 75.942 32.75 76.375 32.75H82.225C82.525 32.75 82.775 32.858 82.975 33.075 83.175 33.292 83.275 33.533 83.275 33.8 83.275 34.033 83.225 34.233 83.125 34.4L72.775 49.85 83.925 66.1C83.992 66.2 84.033 66.3 84.05 66.4 84.067 66.5 84.075 66.6 84.075 66.7 84.075 66.967 83.967 67.208 83.75 67.425 83.533 67.642 83.292 67.75 83.025 67.75H76.625C76.192 67.75 75.842 67.633 75.575 67.4 75.308 67.167 75.125 66.967 75.025 66.8L67.725 56.35 60.525 66.8C60.392 66.967 60.2 67.167 59.95 67.4 59.7 67.633 59.358 67.75 58.925 67.75H52.775Z"/>
    </g>
</svg>