
<svg viewBox="0 0 100 100" xmlns="http://www.w3.org/2000/svg">
    <rect width="100" height="100" fill="none" fill-rule="evenodd"/>
    <path fill="#00D563" fill-rule="evenodd" d="M17.708 1.042H82.292C92.083 1.042 100 8.958 100 18.75V80.833C100 90.625 92.083 98.542 82.292 98.542H17.708C7.917 98.542 0 90.625 0 80.833V18.75C0 8.958 7.917 1.042 17.708 1.042ZM71.833 70.625C74 70.625 76.125 70.417 78.25 70.042 80.583 69.625 82.875 68.958 85.042 68.042 85.333 67.917 85.458 67.667 85.458 67.375 85.417 66.667 85.375 65.833 85.292 64.958 85.25 64.042 85.208 63.208 85.208 62.458V22.708C85.167 22.542 85 22.375 84.792 22.417H76.333C76.042 22.417 75.917 22.583 75.917 22.875V36.042C75.417 36 75 36 74.625 35.958 74.25 35.917 73.958 35.917 73.75 35.917 69.625 35.917 66.125 36.708 63.208 38.333 60.458 39.833 58.167 42.083 56.583 44.792 55.042 47.458 54.25 50.5 54.292 53.583 54.292 57.375 55.042 60.542 56.583 63.083 58.083 65.542 60.25 67.542 62.875 68.75 65.667 70.042 68.75 70.667 71.833 70.625ZM75.917 62.292C75.417 62.458 74.958 62.542 74.417 62.5 73.875 62.542 73.292 62.583 72.667 62.583 71.5 62.583 70.333 62.417 69.208 62.042 68.125 61.708 67.167 61.125 66.375 60.375 65.542 59.542 64.917 58.542 64.5 57.417 64 56.042 63.75 54.583 63.792 53.125 63.792 50.958 64.25 49.167 65.167 47.833 66.083 46.5 67.292 45.458 68.708 44.75 70.167 44 71.792 43.667 73.417 43.667 73.875 43.667 74.333 43.708 74.792 43.75 75.167 43.792 75.542 43.875 75.917 43.958V62.292ZM52.583 26.667C52.667 26.583 52.75 26.417 52.708 26.375 52.667 26.167 52.458 26.042 52.25 26.083H43.458C43.25 26.042 43.083 26.083 42.917 26.167 42.792 26.25 42.708 26.417 42.667 26.583 41.75 28.292 40.833 30.083 39.875 31.833 38.917 33.583 37.958 35.333 37.042 37.083 36.125 38.833 35.208 40.625 34.333 42.458H34.25C33.375 40.667 32.458 38.917 31.458 37.167 30.417 35.417 29.458 33.667 28.458 31.875 27.5 30.083 26.583 28.292 25.792 26.5 25.667 26.333 25.542 26.208 25.375 26.125 25.208 26.083 25 26.042 24.792 26.042H15.333C15.167 26.042 15 26.083 14.917 26.208 14.833 26.292 14.875 26.458 15 26.625L27.625 48 14.667 69.25C14.583 69.375 14.542 69.542 14.583 69.708 14.583 69.917 14.708 69.833 14.875 69.833H24.042C24.5 69.833 24.833 69.792 25 69.375 25.958 67.667 26.917 65.875 27.875 64.125 28.792 62.375 29.75 60.583 30.708 58.792 31.667 57 32.625 55.208 33.5 53.417H33.583C34.583 55.25 35.583 57.042 36.583 58.833 37.583 60.625 38.542 62.375 39.417 64.083 40.292 65.833 41.208 67.542 42.083 69.292 42.375 69.708 42.833 69.75 43.5 69.75H53.042C53.292 69.708 53.458 69.833 53.5 69.667 53.542 69.5 53.5 69.333 53.417 69.167L40.083 47.292 52.583 26.667Z"/>
</svg>